HIERARCHY
ROOT Hips
{
 OFFSET 0.000000 0.000000 0.000000
 CHANNELS 6 Xposition Yposition Zposition Yrotation Xrotation Zrotation
 JOINT Chest
 {
  OFFSET 0.000000 9.585900 0.002600
  CHANNELS 3 Yrotation Xrotation Zrotation
  JOINT Chest2
  {
   OFFSET 0.000000 9.601200 -0.005300
   CHANNELS 3 Yrotation Xrotation Zrotation
   JOINT Chest3
   {
    OFFSET 0.000000 9.561800 0.000000
    CHANNELS 3 Yrotation Xrotation Zrotation
    JOINT Chest4
    {
     OFFSET 0.000000 9.552100 0.000000
     CHANNELS 3 Yrotation Xrotation Zrotation
     JOINT Neck
     {
      OFFSET 0.000000 14.453000 0.000000
      CHANNELS 3 Yrotation Xrotation Zrotation
      JOINT Head
      {
       OFFSET 0.000000 8.936500 -0.011300
       CHANNELS 3 Yrotation Xrotation Zrotation
       End Site
       {
        OFFSET 0.000000 17.073600 -0.006000
       }
      }
     }
     JOINT RightCollar
     {
      OFFSET -2.921100 9.558500 0.000000
      CHANNELS 3 Yrotation Xrotation Zrotation
      JOINT RightShoulder
      {
       OFFSET -13.519700 0.000000 0.000000
       CHANNELS 3 Yrotation Xrotation Zrotation
       JOINT RightElbow
       {
        OFFSET 0.000000 -29.696600 0.000000
        CHANNELS 3 Yrotation Xrotation Zrotation
        JOINT RightWrist
        {
         OFFSET 0.000000 -24.004700 0.000000
         CHANNELS 3 Yrotation Xrotation Zrotation
         End Site
         {
          OFFSET 0.000000 -17.728500 0.000000
         }
        }
       }
      }
     }
     JOINT LeftCollar
     {
      OFFSET 2.921100 9.558500 0.000000
      CHANNELS 3 Yrotation Xrotation Zrotation
      JOINT LeftShoulder
      {
       OFFSET 13.519700 0.000000 0.000000
       CHANNELS 3 Yrotation Xrotation Zrotation
       JOINT LeftElbow
       {
        OFFSET 0.000000 -29.696600 0.000000
        CHANNELS 3 Yrotation Xrotation Zrotation
        JOINT LeftWrist
        {
         OFFSET 0.000000 -24.004700 0.000000
         CHANNELS 3 Yrotation Xrotation Zrotation
         End Site
         {
          OFFSET 0.000000 -17.728500 0.000000
         }
        }
       }
      }
     }
    }
   }
  }
 }
 JOINT RightHip
 {
  OFFSET -7.771700 -0.012900 -0.001300
  CHANNELS 3 Yrotation Xrotation Zrotation
  JOINT RightKnee
  {
   OFFSET 0.000000 -40.869800 0.001200
   CHANNELS 3 Yrotation Xrotation Zrotation
   JOINT RightAnkle
   {
    OFFSET 0.000000 -39.717900 0.002100
    CHANNELS 3 Yrotation Xrotation Zrotation
    JOINT RightToe
    {
     OFFSET 0.000000 -4.965400 11.033500
     CHANNELS 3 Yrotation Xrotation Zrotation
     End Site
     {
      OFFSET 0.000000 -1.423100 5.872300
     }
    }
   }
  }
 }
 JOINT LeftHip
 {
  OFFSET 7.771700 -0.012900 -0.001300
  CHANNELS 3 Yrotation Xrotation Zrotation
  JOINT LeftKnee
  {
   OFFSET 0.000000 -40.869800 0.001200
   CHANNELS 3 Yrotation Xrotation Zrotation
   JOINT LeftAnkle
   {
    OFFSET 0.000000 -39.717900 0.002100
    CHANNELS 3 Yrotation Xrotation Zrotation
    JOINT LeftToe
    {
     OFFSET 0.000000 -4.965400 11.033500
     CHANNELS 3 Yrotation Xrotation Zrotation
     End Site
     {
      OFFSET 0.000000 -1.423100 5.872300
     }
    }
   }
  }
 }
}
MOTION
Frames: 5
Frame Time: 0.008333
0.000000 85.388000 0.000000 0.000000 -5.767877 0.000000 0.000000 11.653817 0.000000 0.000000 -5.885947 0.000000 0.000000 -0.000000 0.000000 0.000000 -0.000000 0.000000 0.000000 12.528835 0.000000 0.000000 0.711642 0.000000 0.000000 -0.000000 0.000000 0.000000 0.000000 -90.000000 0.000000 -2.309062 0.000000 0.000000 2.309062 0.000000 0.000000 -0.000000 0.000000 0.000000 -0.000000 90.000000 0.000000 -2.309062 0.000000 0.000000 2.309062 0.000000 0.000000 8.520406 0.000000 0.000000 1.905762 0.000000 -0.000000 -4.658285 0.000000 0.000000 -0.000000 0.000000 0.000000 8.520406 0.000000 0.000000 1.905762 0.000000 -0.000000 -4.658285 0.000000 0.000000 -0.000000 0.000000
-15.553320 47.263812 29.962753 177.723896 -36.665128 -3.815958 0.288708 16.572044 0.668623 0.036354 1.703094 0.091746 0.002169 2.805034 0.131997 0.299785 14.703372 0.791928 -0.123414 27.595048 0.394878 -0.299646 15.452792 0.727801 -5.580720 3.153480 -6.262533 -2.942928 -3.509907 -9.180644 50.138580 -64.743985 -16.248746 2.248536 5.646314 -34.364673 2.642412 1.105341 4.372996 -1.002697 -1.968940 11.048190 -85.655564 -57.425192 56.818392 -12.369507 17.236582 25.313418 3.044874 -50.927885 1.402924 139.981758 77.268136 150.088203 -10.603728 -21.850923 -1.870377 -0.074995 -0.146965 0.186710 -4.940448 -51.510453 10.317741 -112.122550 82.099567 -114.440398 7.424907 -5.663169 2.677621 -0.031501 0.055197 0.049295
-15.554880 47.264778 29.958228 177.791871 -36.652811 -3.823886 0.315025 16.613919 0.687800 0.018539 1.697047 0.087589 0.015138 2.821281 0.140977 0.270797 14.703778 0.797403 -0.116790 27.548069 0.403420 -0.289791 15.365603 0.741770 -5.581145 3.145543 -6.266787 -2.960209 -3.497170 -9.193436 50.184529 -64.806421 -16.297158 2.259342 5.563046 -34.396383 2.634433 1.100649 4.379225 -1.038615 -2.016379 11.031321 -85.625018 -57.430373 56.771154 -12.331294 17.225244 25.412309 3.160813 -50.944940 1.363057 139.878573 77.215034 149.992658 -10.648762 -21.891117 -1.818796 -0.055271 -0.139349 0.160791 -4.962786 -51.518835 10.308028 -111.949063 82.095317 -114.305298 7.403145 -5.645167 2.686955 -0.010345 0.039723 0.050873
-15.557327 47.261926 29.956371 177.945668 -36.611102 -3.880666 0.257234 16.624526 0.695480 0.017063 1.700323 0.089064 0.029938 2.839734 0.149122 0.240379 14.702508 0.803313 -0.112111 27.500310 0.412783 -0.283506 15.276921 0.757692 -5.587481 3.135184 -6.270977 -2.995188 -3.484612 -9.214123 50.227301 -64.898059 -16.273658 2.274525 5.521223 -34.452754 2.626172 1.093837 4.383171 -1.021266 -1.970333 11.060116 -85.760877 -57.478561 56.882383 -12.329534 17.185030 25.460290 3.204438 -50.979727 1.320001 139.769742 77.170163 149.895103 -10.700535 -21.915779 -1.790315 -0.043968 -0.147400 0.155154 -5.058021 -51.556082 10.297487 -111.786323 82.087725 -114.180848 7.411036 -5.648919 2.681659 -0.027395 0.049019 0.062744
-15.555232 47.258460 29.952593 178.056558 -36.585959 -3.943796 0.243264 16.650490 0.735980 -0.019640 1.678708 0.079514 0.063953 2.870402 0.161598 0.231112 14.715015 0.814296 -0.109244 27.451578 0.422611 -0.280679 15.186476 0.774744 -5.595760 3.123352 -6.275585 -3.049224 -3.504341 -9.224358 50.245110 -64.942194 -16.236735 2.287393 5.474470 -34.455140 2.618120 1.087364 4.385998 -1.028270 -1.954012 11.075645 -85.831884 -57.506516 56.937507 -12.307571 17.156781 25.537899 3.230448 -50.995141 1.339636 139.692835 77.143291 149.827759 -10.742353 -21.928223 -1.790112 -0.096601 -0.163403 0.187407 -5.173953 -51.575610 10.374742 -111.592262 82.040759 -114.023463 7.359091 -5.655014 2.659297 0.011337 0.056526 0.085355
